<svg fill="none" viewBox="0 0 369 447"><ellipse cx="178.469" cy="220.023" fill="#fff" rx="29.975" ry="37.767" transform="rotate(-31.558 178.469 220.023)"/><ellipse cx="178.468" cy="220.023" fill="#fff" rx="25.013" ry="33.227" transform="rotate(-31.558 178.468 220.023)"/><ellipse cx="2.02" cy="3.174" fill="#fff" rx="2.02" ry="3.174" transform="matrix(.92836 -.37381 .3727 .9271 131.684 166.524)"/><ellipse cx="2.02" cy="3.174" fill="#fff" rx="2.02" ry="3.174" transform="matrix(-.75943 .65182 .65117 .75788 152.212 153.404)"/><path fill="#fff" fill-rule="evenodd" d="M138.192 153.512c-3.39 2.116-9.053 7.627-4.592 12.744 2.99 3.43 2.553 5.498 2.081 7.734-.409 1.933-.844 3.991.888 7.163 1.573 2.882 3.532 4.376 5.487 5.867 2.688 2.05 5.368 4.094 7.029 9.724 2.295 7.783 13.947 26.967 19.534 35.465l12.667-7.779 12.525-7.612c-4.969-8.874-16.341-27.977-22.191-33.6-4.121-3.961-4.079-7.211-4.036-10.45.033-2.507.066-5.009-1.833-7.83-2.029-3.015-4.548-3.569-6.972-4.102-2.775-.61-5.427-1.193-7.086-5.406-2.487-6.317-9.987-3.829-13.426-1.795l-.075-.123Z" clip-rule="evenodd"/><ellipse cx="4.882" cy="6.877" fill="#fff" rx="4.882" ry="6.877" transform="matrix(-.55034 .83558 .8354 .54868 138.977 173.837)"/><ellipse cx="4.882" cy="6.877" fill="#fff" rx="4.882" ry="6.877" transform="matrix(-1.00003 -.0248 -.0263 .99931 167.419 163.001)"/><path fill="#fff" d="M185.093 202.037c-6.68 9.419-19.418 15.226-25.13 16.008l1.863 2.933c13.374-.999 22.204-11.133 25.111-16.031l-1.844-2.91Z"/><path fill="#fff" d="M186.906 204.84c-7.725 11.714-19.422 15.253-25.131 16.104l1.509 2.269c13.384-1.162 22.756-10.165 25.576-15.086l-1.954-3.287Z"/><ellipse cx=".906" cy="1.424" fill="#fff" opacity=".2" rx=".906" ry="1.424" transform="matrix(.9925 -.12664 .12525 .99156 151.018 154.994)"/><ellipse cx=".906" cy="1.424" fill="#fff" opacity=".2" rx=".906" ry="1.424" transform="matrix(.9925 -.12664 .12525 .99156 132.909 166.374)"/><path fill="#fff" d="M139.661 171.644c-5.606-8.335 1.764-14.774 1.793-14.647 9.632-2.818 13.379 5.026 13.75 6.298 1.021 3.502 7.663 3.11 8.068 7.16.405 4.049 4.396 10.572 5.932 15.88.941 3.253.419 4.968-.231 5.718.217-.129.133-.063-.075.082a1.394 1.394 0 0 1-.518.352c.193-.129.382-.257.518-.352.025-.026.05-.053.075-.082-.286.17-1.091.677-2.814 1.784-4.862 3.123-9.101-3.158-17.851-7.963-8.75-4.805-1.64-3.811-8.647-14.23Z"/><path fill="#fff" d="M164.249 190.696c-4.159 2.054-10.752-5.922-13.529-10.168 2.103-2.009 6.91-5.953 9.318-5.662 3.009.364 9.41 13.261 4.211 15.83Z"/><path fill="#fff" d="M164.378 189.099c2.554-2.025-1.989-7.536-4.58-10.039l-5.368 3.263c2.251 3.102 7.393 8.801 9.948 6.776Z"/><path fill="#fff" d="M162.758 187.123c.323-.754-4.143-6.225-6.417-8.867l-1.103.843c2.372 2.989 7.197 8.778 7.52 8.024Z"/><path fill="#fff" d="M147.095 178.177c-.778-7.288-4.242-9.485-5.877-9.672.822-7.99 7.542-7.704 10.798-6.562.222 7.456-.128 1.596 7.112 8.922 5.791 5.86 2.677 10.941.396 12.749-3.819 1.224-11.651 1.85-12.429-5.437Z"/><path fill="#fff" d="M161.202 173.519c-11.53-4.736-12.381 4.374-11.366 9.521 1.624 1.375 5.869 3.401 9.855.507 3.986-2.895 2.668-7.892 1.511-10.028Z"/><path fill="#fff" d="M153.494 176.724c-.513-.688-1.581-1.888-1.751-1.184-.169.705 1.097 1.083 1.751 1.184ZM154.886 175.882c-.491-.704-1.293-2.097-.571-2.035.723.062.682 1.382.571 2.035ZM139.581 145.396l4.361 5.917c-1.43 5.377-8.51 8.025-11.871 8.678l-4.354-6.094 11.864-8.501Z"/><path fill="#fff" d="M143.942 151.313c1.262 3.86.392 10.738-11.887 8.624l11.887-8.624Z"/><ellipse cx="7.304" cy="1.259" fill="#fff" rx="7.304" ry="1.259" transform="matrix(.81671 -.57849 .5777 .81522 126.972 152.837)"/><path fill="#fff" d="M133.839 151.949c.04-.005.071-.011.103-.012.26-.011.471.05.667.22.083.072.159.155.237.231.068.068.136.135.206.202.018.017.022.027.002.048-.043.043-.064.098-.047.159a.137.137 0 0 0 .104.101.159.159 0 0 0 .143-.035c.021-.017.028-.036.023-.065a1.557 1.557 0 0 0-.225-.604c-.096-.153-.22-.284-.337-.418-.067-.077-.132-.157-.201-.231a.609.609 0 0 1-.106-.155.414.414 0 0 1-.039-.189.329.329 0 0 1 .173.073c.046.039.087.085.126.13.041.049.076.103.114.153.1.132.198.265.302.394.174.214.39.37.646.465.034.014.059.005.083-.019a.16.16 0 0 0 .018-.215c-.047-.058-.14-.068-.206-.018-.024.018-.033.011-.045-.011l-.212-.333c-.079-.126-.165-.247-.206-.393a.92.92 0 0 1 .022-.556l.017-.047.023.029 1.28 1.586c.024.031.024.031-.004.054l-.326.27c-.019.016-.023.028-.011.051a.78.78 0 0 1 .066.545c-.009.04-.011.083-.016.125-.12-.022-.246 0-.366-.042a.825.825 0 0 1-.272-.147c-.018-.014-.031-.013-.048 0l-.33.274c-.02.016-.031.019-.049-.004l-1.287-1.595c-.005-.001-.01-.006-.022-.021Zm.319.147-.007.01a.74.74 0 0 0 .024.029l.61.757c.034.042.034.042.078.006.016-.013.021-.024.012-.044a.253.253 0 0 1 .002-.193c.01-.027.002-.042-.016-.059-.089-.085-.181-.171-.267-.26a.774.774 0 0 0-.291-.195c-.049-.02-.096-.034-.145-.051Zm1.131-.929c-.003.003-.006.002-.008.005a.44.44 0 0 0 .003.052c.014.127.023.229.088.338.084.139.171.275.257.412.01.019.023.026.048.022a.266.266 0 0 1 .188.036c.027.017.047.01.077-.026.018-.023-.003-.032-.013-.045a259.792 259.792 0 0 1-.64-.794Zm.038 1.826a.852.852 0 0 1-.029.014c-.102.052-.204.065-.304-.003-.014-.009-.024-.01-.035.002l-.029.024c-.013.011-.014.021-.003.035.083.104.168.209.254.312.004.005.025.009.03.004.075-.059.151-.122.223-.184.006-.005.009-.023.006-.03l-.113-.174Zm.585-.485.148.148c.014.014.025.005.036-.004.07-.058.137-.116.208-.172.022-.018.022-.032.004-.052-.076-.092-.15-.185-.226-.28-.035-.043-.035-.043-.077-.008-.012.011-.023.02-.015.038.041.102.018.195-.039.282-.013.018-.029.033-.039.048Zm-.605-.15c.048.138.093.274.113.419.065-.006.127-.011.19-.019.009 0 .02-.014.023-.024.018-.051.031-.103.049-.155.005-.016.002-.025-.015-.032a1.629 1.629 0 0 1-.333-.175l-.027-.014Zm.368.82c.052.077.244.159.303.139l.001-.005c-.058-.072-.115-.145-.173-.214-.005-.006-.021-.006-.028-.003-.036.025-.069.055-.103.083Zm.42.047c.031-.083-.02-.288-.074-.336l-.093.077c-.018.015-.018.027-.004.043l.14.175a.74.74 0 0 0 .031.041Zm-.461-.196c.018-.015.038-.029.054-.046.005-.005.007-.025.003-.028-.058-.054-.138-.075-.207-.042-.015.008-.019.016-.012.031l.077.126c.009.015.022.014.034.004l.051-.045Zm.252-.208.048-.04c.017-.012.021-.027.004-.042a2.819 2.819 0 0 0-.097-.093c-.017-.014-.028-.012-.04.007a.193.193 0 0 0 .002.209c.004.006.022.007.028.004.02-.014.037-.03.055-.045Z"/><path fill="#fff" d="m139.581 145.396 4.361 5.917c-1.43 5.377-8.51 8.025-11.871 8.678l-4.354-6.094s1.1-.477 1.724-.914c.748-.524 1.697-1.608 1.697-1.608l7.07 2.96-2.012-6.896s1.304-.158 1.996-.584c.67-.412 1.389-1.459 1.389-1.459Z"/><ellipse cx="181.206" cy="224.499" fill="#fff" rx="14.761" ry="4.019" transform="matrix(.85211 -.52402 .5227 .85211 -90.548 128.156)"/><path fill="#fff" d="m162.796 225.326 28.205-17.323 6.777 11.035-28.204 17.323z"/><path fill="red" d="M238.204 329.162c-17.912-24.883-15.368-32.755-8.696-37.556 6.673-4.801 14.947-4.713 32.86 20.171 17.912 24.884 32.008 69.941 32.008 69.941-20.344-28.261-38.259-27.672-56.172-52.556Z"/><path fill="red" d="M240.399 306.735c-17.913-24.884-15.369-32.756-8.697-37.557 6.673-4.801 14.947-4.712 32.86 20.172 17.913 24.883 32.008 69.94 32.008 69.94-20.343-28.26-38.259-27.671-56.171-52.555Z"/><path fill="red" d="M211.412 317.421c-17.912-24.884-15.368-32.756-8.696-37.557 6.673-4.801 14.947-4.712 32.86 20.171 17.912 24.884 32.008 69.941 32.008 69.941-20.344-28.261-38.259-27.672-56.172-52.555Z"/><path fill="#B7B7B7" d="m94.059 162.614 76.346-46.891 91.94 149.692-76.346 46.891z"/><ellipse cx="224.078" cy="288.708" fill="#B7B7B7" rx="44.798" ry="17.71" transform="rotate(-31.558 224.078 288.708)"/><path fill="url(#a)" fill-rule="evenodd" d="m166.661 109.625-76.346 46.891L182.12 305.99l.04.066.041.066.054.087.001-.001c5.283 8.137 26.393 4.363 47.346-8.506 20.954-12.87 33.865-29.991 28.996-38.383l.002-.001-91.939-149.693Z" clip-rule="evenodd"/><path fill="url(#b)" d="M89.675 155.477c18.254 29.721 94.703-17.233 76.449-46.955-24.961-40.64-90.815-60.776-90.815-60.776s-10.782 66.787 14.366 107.731Z"/><path fill="url(#c)" d="m135.178 314.092 37.614-23.101-51.979-84.63s-10.782 66.787 14.365 107.731Z"/><path fill="url(#d)" d="m286.854 220.934-37.613 23.102-51.978-84.63s64.444 20.583 89.591 61.528Z"/><ellipse cx="178.469" cy="220.023" fill="#EDEDED" rx="29.975" ry="37.767" transform="rotate(-31.558 178.469 220.023)"/><ellipse cx="178.468" cy="220.023" fill="#888" rx="25.013" ry="33.227" transform="rotate(-31.558 178.468 220.023)"/><ellipse cx="2.02" cy="3.174" fill="#000" rx="2.02" ry="3.174" transform="matrix(.92836 -.37381 .3727 .9271 131.684 166.524)"/><ellipse cx="2.02" cy="3.174" fill="#000" rx="2.02" ry="3.174" transform="matrix(-.75943 .65182 .65117 .75788 152.212 153.404)"/><path fill="#fff" fill-rule="evenodd" d="M138.192 153.512c-3.39 2.116-9.053 7.627-4.592 12.744 2.99 3.43 2.553 5.498 2.081 7.734-.409 1.933-.844 3.991.888 7.163 1.573 2.882 3.532 4.376 5.487 5.867 2.688 2.05 5.368 4.094 7.029 9.724 2.295 7.783 13.947 26.967 19.534 35.465l12.667-7.779v-.001l12.525-7.611c-4.969-8.874-16.341-27.977-22.191-33.6-4.121-3.961-4.079-7.211-4.036-10.45.033-2.507.066-5.009-1.833-7.83-2.029-3.015-4.548-3.569-6.972-4.102-2.775-.61-5.427-1.193-7.086-5.406-2.487-6.317-9.987-3.829-13.426-1.795l-.075-.123Z" clip-rule="evenodd"/><ellipse cx="4.882" cy="6.877" fill="url(#e)" rx="4.882" ry="6.877" transform="matrix(-.55034 .83558 .8354 .54868 138.977 173.837)"/><ellipse cx="4.882" cy="6.877" fill="url(#f)" rx="4.882" ry="6.877" transform="matrix(-1.00003 -.0248 -.0263 .99931 167.419 163.001)"/><path fill="#005BBB" d="M185.093 202.037c-6.68 9.419-19.418 15.226-25.13 16.008l1.863 2.933c13.374-.999 22.204-11.133 25.111-16.031l-1.844-2.91Z"/><path fill="#FFD500" d="M186.906 204.84c-7.725 11.714-19.422 15.253-25.131 16.104l1.509 2.269c13.384-1.162 22.756-10.165 25.576-15.086l-1.954-3.287Z"/><ellipse cx=".906" cy="1.424" fill="#fff" opacity=".2" rx=".906" ry="1.424" transform="matrix(.9925 -.12664 .12525 .99156 151.018 154.994)"/><ellipse cx=".906" cy="1.424" fill="#fff" opacity=".2" rx=".906" ry="1.424" transform="matrix(.9925 -.12664 .12525 .99156 132.909 166.374)"/><path fill="#FF6B0A" d="M139.661 171.644c-5.606-8.335 1.764-14.774 1.793-14.647 9.632-2.818 13.379 5.026 13.75 6.298 1.021 3.502 7.663 3.11 8.068 7.16.405 4.049 4.396 10.572 5.932 15.88.941 3.253.419 4.968-.231 5.718.217-.129.133-.063-.075.082a1.394 1.394 0 0 1-.518.352c.193-.129.382-.257.518-.352.025-.026.05-.053.075-.082-.286.17-1.091.677-2.814 1.784-4.862 3.123-9.101-3.158-17.851-7.963-8.75-4.805-1.64-3.811-8.647-14.23Z"/><path fill="#000" d="M164.249 190.696c-4.159 2.054-10.752-5.922-13.529-10.168 2.103-2.009 6.91-5.953 9.318-5.662 3.009.364 9.41 13.261 4.211 15.83Z"/><path fill="#956C7C" d="M164.378 189.099c2.554-2.025-1.989-7.536-4.58-10.039l-5.368 3.263c2.251 3.102 7.393 8.801 9.948 6.776Z"/><path fill="#86616F" d="M162.758 187.123c.323-.754-4.143-6.225-6.417-8.867l-1.103.843c2.372 2.989 7.197 8.778 7.52 8.024Z"/><path fill="#EB6005" d="M147.095 178.177c-.778-7.288-4.242-9.485-5.877-9.672.822-7.99 7.542-7.704 10.798-6.562.222 7.456-.128 1.596 7.112 8.922 5.791 5.86 2.677 10.941.396 12.749-3.819 1.224-11.651 1.85-12.429-5.437Z"/><path fill="#EFE5D5" d="M161.202 173.519c-11.53-4.736-12.381 4.374-11.366 9.521 1.624 1.375 5.869 3.401 9.855.507 3.986-2.895 2.668-7.892 1.511-10.028Z"/><path fill="#DACAB0" d="M153.494 176.724c-.513-.688-1.581-1.888-1.751-1.184-.169.705 1.097 1.083 1.751 1.184ZM154.886 175.882c-.491-.704-1.293-2.097-.571-2.035.723.062.682 1.382.571 2.035Z"/><ellipse cx="181.206" cy="224.499" fill="#fff" rx="14.761" ry="4.019" transform="matrix(.85211 -.52402 .5227 .85211 -90.548 128.156)"/><path fill="url(#g)" d="M162.796 225.326h33.1v12.95h-33.1z" transform="rotate(-31.558 162.796 225.326)"/><defs><linearGradient id="a" x1="117.618" x2="243.573" y1="195.909" y2="160.005" gradientUnits="userSpaceOnUse"><stop stop-color="#C8C8C8"/><stop offset="1" stop-color="#fff"/></linearGradient><linearGradient id="b" x1="89.36" x2="161.228" y1="149.895" y2="47.578" gradientUnits="userSpaceOnUse"><stop stop-color="#C8C8C8"/><stop offset="1" stop-color="#fff"/></linearGradient><linearGradient id="c" x1="123.416" x2="167.895" y1="292.446" y2="245.436" gradientUnits="userSpaceOnUse"><stop stop-color="#C8C8C8"/><stop offset="1" stop-color="#fff"/></linearGradient><linearGradient id="d" x1="272.867" x2="210.825" y1="200.655" y2="219.07" gradientUnits="userSpaceOnUse"><stop stop-color="#C8C8C8"/><stop offset="1" stop-color="#fff"/></linearGradient><linearGradient id="g" x1="179.346" x2="179.346" y1="225.326" y2="238.276" gradientUnits="userSpaceOnUse"><stop stop-color="#888" stop-opacity="0"/><stop offset="1" stop-color="#888"/></linearGradient><radialGradient id="e" cx="0" cy="0" r="1" gradientTransform="matrix(0 6.87666 -4.88203 0 4.882 6.877)" gradientUnits="userSpaceOnUse"><stop stop-color="#FBB"/><stop offset="1" stop-color="#FBB" stop-opacity="0"/></radialGradient><radialGradient id="f" cx="0" cy="0" r="1" gradientTransform="matrix(0 6.87666 -4.88203 0 4.882 6.877)" gradientUnits="userSpaceOnUse"><stop stop-color="#FBB"/><stop offset="1" stop-color="#FBB" stop-opacity="0"/></radialGradient></defs></svg>