<svg fill="none" viewBox="0 0 183 145"><path fill="#fff" stroke="#E3F3FF" stroke-width="3" d="m89.135 142.413-2.046-.665 1.331-1.69c2.352-2.986 5.362-8.103 6.712-13.659 1.347-5.541 1.003-11.292-2.973-15.917-1.09-1.268-3.22-2.414-6.44-3.439-3.166-1.008-7.15-1.828-11.699-2.598-3.18-.539-6.644-1.053-10.266-1.59-6.635-.984-13.802-2.047-20.738-3.486C32.27 97.14 21.73 93.953 14 88.546 6.176 83.075 1.207 75.302 1.806 64.145c1.145-21.314 6.741-37.97 14.401-48.706C23.847 4.732 33.79-.347 43.423 2.45c3.5 1.017 10.923 2.4 20.68 4.22 2.21.412 4.538.846 6.968 1.303 13.092 2.463 28.984 5.575 44.491 9.428 15.492 3.85 30.676 8.457 42.323 13.932 5.823 2.737 10.828 5.722 14.557 8.984 3.721 3.256 6.29 6.894 6.989 10.95 2.518 14.605.982 30.768-3.065 44.318-2.024 6.781-4.689 12.949-7.824 17.966-3.124 5-6.774 8.952-10.811 11.162-6.396 3.503-14.623 3.632-22.1 2.512-6.892-1.032-13.374-3.159-17.648-4.979-3.015 3.989-7.633 9.355-12.542 13.585-2.656 2.289-5.455 4.296-8.178 5.558-2.7 1.251-5.536 1.866-8.128 1.024Z"/></svg>