<svg xmlns="http://www.w3.org/2000/svg" fill="none" viewBox="0 0 179 415"><ellipse cx="86.293" cy="201.597" fill="#fff" rx="29.975" ry="37.767"/><ellipse cx="86.293" cy="201.597" fill="#fff" rx="25.013" ry="33.227"/><ellipse cx="2.02" cy="3.174" fill="#fff" rx="2.02" ry="3.174" transform="matrix(.9867 .16734 -.16761 .98505 74.427 131.525)"/><ellipse cx="2.02" cy="3.174" fill="#fff" rx="2.02" ry="3.174" transform="matrix(-.98825 .15797 .15823 .9866 98.785 131.088)"/><path fill="#fff" fill-rule="evenodd" d="M86.782 123.843c-3.995.029-11.706 1.761-10.582 8.456.753 4.488-.702 6.022-2.275 7.679-1.36 1.434-2.807 2.96-2.992 6.569-.168 3.279.72 5.577 1.605 7.871 1.218 3.153 2.431 6.298.9 11.965-2.117 7.833-2.228 30.278-1.916 40.443h14.865l14.657.07c.41-10.162.718-32.392-1.324-40.245-1.439-5.533.298-8.279 2.03-11.017 1.34-2.119 2.677-4.234 2.536-7.631-.151-3.632-2.007-5.421-3.795-7.145-2.045-1.971-4-3.856-3.208-8.315 1.187-6.684-6.506-8.489-10.502-8.556l.001-.144Z" clip-rule="evenodd"/><ellipse cx="4.882" cy="6.877" fill="#fff" rx="4.882" ry="6.877" transform="matrix(-.90626 .42398 .4247 .90474 76.814 141.574)"/><ellipse cx="4.882" cy="6.877" fill="#fff" rx="4.882" ry="6.877" transform="matrix(-.83916 -.5445 -.54542 .83776 106.721 147.225)"/><path fill="#fff" d="M101.351 189.738c-10.622 4.53-24.515 2.811-29.792.488l.053 3.475c11.92 6.148 24.747 2.133 29.787-.518l-.048-3.445Z"/><path fill="#fff" d="M101.429 193.075c-12.713 5.939-24.532 2.833-29.842.57l.099 2.723c12.012 6.015 24.71 3.249 29.688.531l.055-3.824Z"/><ellipse cx=".906" cy="1.424" fill="#fff" opacity=".2" rx=".906" ry="1.424" transform="matrix(.912 .41153 -.41221 .91048 96.936 131.818)"/><ellipse cx=".906" cy="1.424" fill="#fff" opacity=".2" rx=".906" ry="1.424" transform="matrix(.912 .41153 -.41221 .91048 75.55 132.038)"/><path fill="#fff" d="M78.544 140.062c-.414-10.036 9.236-11.665 9.194-11.542 9.683 2.64 8.77 11.285 8.42 12.563-.962 3.518 4.902 6.66 3.128 10.323-1.774 3.663-1.787 11.309-3.256 16.637-.9 3.264-2.243 4.452-3.19 4.751.253.003.147.016-.106.03a1.393 1.393 0 0 1-.626.03c.232-.01.46-.02.626-.03.035-.008.07-.019.106-.03-.332-.005-1.283.006-3.332.047-5.777.117-6.102-7.453-11.043-16.127-4.94-8.674.597-4.106.08-16.652Z"/><path fill="#fff" d="M89.526 169.165c-4.62-.426-6.063-10.673-6.207-15.744 2.843-.611 9.004-1.457 10.903.052 2.373 1.885 1.078 16.224-4.696 15.692Z"/><path fill="#fff" d="M90.47 167.872c3.237-.388 2.25-7.462 1.352-10.951l-6.282-.03c.295 3.822 1.694 11.369 4.93 10.981Z"/><path fill="#fff" d="M90.124 165.34c.67-.473-.272-7.473-.827-10.914l-1.38.141c.456 3.789 1.537 11.247 2.207 10.773Z"/><path fill="#fff" d="M81.46 149.519c3.15-6.617 1.349-10.301.054-11.317 4.883-6.378 10.458-2.617 12.636.06-3.714 6.47-.945 1.293 1.39 11.324 1.868 8.025-3.445 10.725-6.335 11.071-3.894-.955-10.896-4.521-7.745-11.138Z"/><path fill="#fff" d="M95.918 152.933c-7.346-10.069-12.84-2.752-14.668 2.165.665 2.022 3.221 5.97 8.133 5.59 4.912-.381 6.404-5.328 6.535-7.755Z"/><path fill="#fff" d="M87.673 151.631c-.077-.855-.36-2.437-.872-1.925-.513.512.367 1.497.872 1.925Zm1.627.011c-.05-.857-.004-2.464.579-2.033.582.431-.143 1.535-.579 2.033Zm2.914-33.987.619 7.323c-4.032 3.834-11.452 2.386-14.657 1.182l-.52-7.471 14.558-1.034Z"/><path fill="#fff" d="M92.833 124.978c-.945 3.951-5.286 9.356-14.643 1.128l14.643-1.128Z"/><ellipse cx="7.304" cy="1.259" fill="#fff" rx="7.304" ry="1.259" transform="matrix(.99869 -.0655 .06561 .997 77.575 117.396)"/><path fill="#fff" d="M83.891 120.233c.037.016.067.028.094.044a.893.893 0 0 1 .454.536c.033.105.054.215.08.321l.07.28c.007.024.005.035-.023.043a.155.155 0 0 0-.123.11.137.137 0 0 0 .036.141c.037.04.087.051.14.045.026-.004.042-.017.053-.044a1.56 1.56 0 0 0 .124-.632c-.001-.181-.038-.357-.068-.533-.017-.1-.03-.202-.05-.302a.6.6 0 0 1-.01-.187.42.42 0 0 1 .066-.182.328.328 0 0 1 .11.153c.018.057.03.118.038.176.01.064.011.128.018.19.016.165.03.33.05.494.038.274.14.52.308.735.022.029.048.035.08.027a.16.16 0 0 0 .129-.173c-.01-.074-.084-.132-.167-.124-.03.002-.033-.008-.032-.033a26.017 26.017 0 0 0-.007-.395c0-.149-.01-.296.031-.442a.917.917 0 0 1 .31-.463l.038-.03.005.037.26 2.02c.005.039.005.039-.032.045l-.418.059c-.025.003-.034.012-.036.037a.781.781 0 0 1-.23.5c-.028.029-.052.065-.078.097-.091-.08-.21-.128-.29-.227a.822.822 0 0 1-.155-.267c-.008-.022-.02-.028-.04-.025l-.426.06c-.025.004-.036 0-.04-.028l-.261-2.034c-.004-.003-.005-.01-.008-.029Zm.196.292-.012.005.004.037.125.964c.007.055.007.055.063.047.02-.003.03-.01.033-.032a.257.257 0 0 1 .103-.163c.022-.018.024-.034.017-.059-.031-.119-.065-.24-.09-.36a.765.765 0 0 0-.147-.319c-.031-.043-.064-.079-.096-.12Zm1.448-.199-.009-.001-.024.047c-.055.115-.1.206-.102.334 0 .162.002.323.003.485 0 .022.007.035.03.044.062.026.11.067.141.129.014.029.035.033.08.018.027-.009.014-.029.011-.045l-.126-.981a.084.084 0 0 0-.004-.03Zm-.922 1.575a.216.216 0 0 1-.033-.003c-.114-.009-.207-.051-.257-.161-.007-.015-.015-.021-.03-.017l-.038.005c-.017.003-.023.011-.021.028.017.133.034.267.053.399 0 .007.017.021.024.02.095-.012.192-.025.286-.041.008-.001.02-.015.02-.022a48.106 48.106 0 0 0-.004-.208Zm.752-.106.05.203c.003.019.017.017.031.015.09-.012.178-.027.268-.037.028-.004.035-.016.03-.043-.017-.118-.03-.236-.046-.356-.007-.055-.007-.055-.061-.047-.016.002-.03.004-.033.024-.018.109-.087.176-.181.22-.02.008-.041.013-.058.021Zm-.437-.445a2.147 2.147 0 0 1-.123.416c.059.029.114.058.171.084.008.004.025-.002.033-.009.042-.034.08-.072.123-.107.012-.011.015-.02.004-.034a1.613 1.613 0 0 1-.192-.324l-.016-.026Zm-.116.891c.005.093.125.263.186.278l.003-.004c-.012-.092-.022-.184-.035-.274-.001-.007-.015-.016-.022-.017-.044.003-.088.011-.132.017Zm.334.26c.07-.054.133-.256.112-.325l-.12.017c-.022.004-.028.013-.025.035l.028.222c0 .016.003.032.005.051Zm-.29-.408c.022-.003.047-.005.07-.012.007-.001.019-.017.016-.022-.02-.076-.078-.136-.154-.143-.016-.001-.025.003-.026.02v.147c0 .018.011.024.027.021l.067-.011Zm.323-.046.061-.008c.022-.001.033-.012.026-.034a3.022 3.022 0 0 0-.034-.13c-.006-.021-.018-.025-.038-.015a.193.193 0 0 0-.107.179c0 .007.014.018.022.018.025-.001.047-.006.07-.01Z"/><path fill="#fff" d="m92.214 117.655.619 7.323c-4.032 3.834-11.452 2.386-14.657 1.182l-.52-7.471s1.186.169 1.946.123c.912-.054 2.288-.481 2.288-.481l4.475 6.222 1.895-6.929s1.194.547 2.006.547c.787-.001 1.948-.516 1.948-.516Z"/><ellipse cx="86.283" cy="206.844" fill="#fff" rx="14.761" ry="4.019"/><path fill="#fff" d="M70.163 197.913h33.1v12.95h-33.1z"/><path fill="red" d="M80.076 325.859c-2.24-30.578 4.047-35.955 12.245-36.553 8.198-.599 15.203 3.807 17.443 34.385 2.241 30.579-9.329 76.349-9.329 76.349-2.545-34.728-18.119-43.602-20.36-74.181Z"/><path fill="red" d="M93.683 307.897c-2.24-30.578 4.047-35.955 12.246-36.554 8.198-.598 15.203 3.808 17.443 34.386 2.241 30.579-9.33 76.349-9.33 76.349-2.544-34.728-18.118-43.602-20.359-74.181Z"/><path fill="red" d="M63.391 301.832c-2.24-30.578 4.047-35.955 12.246-36.553 8.198-.599 15.202 3.807 17.443 34.385 2.24 30.579-9.33 76.349-9.33 76.349-2.544-34.728-18.118-43.602-20.359-74.181Z"/><path fill="#B7B7B7" d="M44.412 108.501h89.596v175.672H44.412z"/><ellipse cx="89.21" cy="283.994" fill="#B7B7B7" rx="44.798" ry="17.71"/><path fill="url(#a)" fill-rule="evenodd" d="M134.009 101.346H44.413v175.672h.002c.243 9.699 20.206 17.532 44.796 17.532s44.553-7.833 44.796-17.532h.002V101.346Z" clip-rule="evenodd"/><path fill="url(#b)" d="M44.412 100.126c0 34.879 89.717 34.879 89.717 0 0-47.694-45.576-99.318-45.576-99.318S44.41 52.075 44.412 100.126Z"/><path fill="url(#c)" d="M.173 259.098h44.141v-99.317S.174 211.048.174 259.098Z"/><path fill="url(#d)" d="M178.173 259.098h-44.141v-99.317s44.141 51.267 44.141 99.317Z"/><ellipse cx="86.293" cy="201.597" fill="#EDEDED" rx="29.975" ry="37.767"/><ellipse cx="86.293" cy="201.597" fill="#888" rx="25.013" ry="33.227"/><ellipse cx="2.02" cy="3.174" fill="#000" rx="2.02" ry="3.174" transform="matrix(.9867 .16734 -.16761 .98505 74.427 131.525)"/><ellipse cx="2.02" cy="3.174" fill="#000" rx="2.02" ry="3.174" transform="matrix(-.98825 .15797 .15823 .9866 98.785 131.088)"/><path fill="#fff" fill-rule="evenodd" d="M86.782 123.843c-3.996.029-11.706 1.761-10.583 8.456.754 4.488-.701 6.022-2.274 7.679-1.36 1.434-2.808 2.96-2.992 6.569-.168 3.279.72 5.577 1.605 7.871 1.217 3.153 2.431 6.298.9 11.965-2.117 7.833-2.228 30.278-1.916 40.443h14.865l14.657.07c.41-10.162.718-32.392-1.324-40.245-1.44-5.533.298-8.279 2.029-11.017 1.341-2.119 2.678-4.234 2.536-7.631-.151-3.632-2.007-5.421-3.794-7.145-2.045-1.971-4-3.856-3.208-8.315 1.187-6.684-6.507-8.489-10.502-8.556v-.144Z" clip-rule="evenodd"/><ellipse cx="4.882" cy="6.877" fill="url(#e)" rx="4.882" ry="6.877" transform="matrix(-.90626 .42398 .4247 .90474 76.814 141.574)"/><ellipse cx="4.882" cy="6.877" fill="url(#f)" rx="4.882" ry="6.877" transform="matrix(-.83916 -.5445 -.54542 .83776 106.721 147.225)"/><path fill="#005BBB" d="M101.351 189.738c-10.622 4.53-24.516 2.811-29.792.488l.053 3.475c11.92 6.148 24.747 2.133 29.787-.518l-.048-3.445Z"/><path fill="#FFD500" d="M101.429 193.075c-12.713 5.939-24.532 2.833-29.842.57l.098 2.723c12.012 6.015 24.71 3.249 29.688.531l.056-3.824Z"/><ellipse cx=".906" cy="1.424" fill="#fff" opacity=".2" rx=".906" ry="1.424" transform="matrix(.912 .41153 -.41221 .91048 96.936 131.818)"/><ellipse cx=".906" cy="1.424" fill="#fff" opacity=".2" rx=".906" ry="1.424" transform="matrix(.912 .41153 -.41221 .91048 75.55 132.038)"/><path fill="#FF6B0A" d="M78.544 140.062c-.414-10.036 9.236-11.665 9.194-11.542 9.682 2.64 8.77 11.285 8.42 12.563-.962 3.518 4.902 6.66 3.128 10.323-1.774 3.663-1.787 11.309-3.256 16.637-.9 3.264-2.244 4.452-3.19 4.751.253.003.147.016-.107.03a1.394 1.394 0 0 1-.626.03c.233-.01.461-.02.626-.03.035-.008.07-.019.107-.03-.332-.005-1.284.006-3.332.047-5.777.117-6.102-7.453-11.043-16.127-4.941-8.674.597-4.106.08-16.652Z"/><path fill="#000" d="M89.525 169.165c-4.619-.426-6.062-10.673-6.207-15.744 2.843-.611 9.004-1.457 10.903.052 2.374 1.885 1.078 16.224-4.696 15.692Z"/><path fill="#956C7C" d="M90.47 167.872c3.237-.388 2.25-7.462 1.352-10.951l-6.282-.03c.295 3.822 1.694 11.369 4.93 10.981Z"/><path fill="#86616F" d="M90.124 165.34c.67-.473-.272-7.473-.827-10.914l-1.38.141c.456 3.789 1.537 11.247 2.207 10.773Z"/><path fill="#EB6005" d="M81.46 149.519c3.15-6.617 1.349-10.301.054-11.317 4.882-6.378 10.458-2.617 12.636.06-3.714 6.47-.945 1.293 1.39 11.324 1.868 8.025-3.445 10.725-6.335 11.071-3.894-.955-10.896-4.521-7.745-11.138Z"/><path fill="#EFE5D5" d="M95.918 152.933c-7.346-10.069-12.84-2.752-14.668 2.165.664 2.022 3.22 5.97 8.133 5.59 4.912-.381 6.403-5.328 6.535-7.755Z"/><path fill="#DACAB0" d="M87.673 151.631c-.077-.855-.36-2.437-.873-1.925-.513.512.368 1.497.873 1.925Zm1.627.011c-.05-.857-.005-2.464.578-2.033.583.431-.142 1.535-.578 2.033Z"/><ellipse cx="86.283" cy="206.844" fill="#fff" rx="14.761" ry="4.019"/><path fill="url(#g)" d="M70.163 197.913h33.1v12.95h-33.1z"/><defs><linearGradient id="a" x1="47.062" x2="173.181" y1="149.202" y2="184.528" gradientUnits="userSpaceOnUse"><stop stop-color="#C8C8C8"/><stop offset="1" stop-color="#fff"/></linearGradient><linearGradient id="b" x1="47.065" x2="161.853" y1="95.205" y2="45.632" gradientUnits="userSpaceOnUse"><stop stop-color="#C8C8C8"/><stop offset="1" stop-color="#fff"/></linearGradient><linearGradient id="c" x1="1.479" x2="63.983" y1="234.498" y2="217.719" gradientUnits="userSpaceOnUse"><stop stop-color="#C8C8C8"/><stop offset="1" stop-color="#fff"/></linearGradient><linearGradient id="d" x1="176.868" x2="114.363" y1="234.498" y2="217.719" gradientUnits="userSpaceOnUse"><stop stop-color="#C8C8C8"/><stop offset="1" stop-color="#fff"/></linearGradient><linearGradient id="g" x1="86.713" x2="86.713" y1="197.913" y2="210.863" gradientUnits="userSpaceOnUse"><stop stop-color="#888" stop-opacity="0"/><stop offset="1" stop-color="#888"/></linearGradient><radialGradient id="e" cx="0" cy="0" r="1" gradientTransform="matrix(0 6.87666 -4.88203 0 4.882 6.877)" gradientUnits="userSpaceOnUse"><stop stop-color="#FBB"/><stop offset="1" stop-color="#FBB" stop-opacity="0"/></radialGradient><radialGradient id="f" cx="0" cy="0" r="1" gradientTransform="matrix(0 6.87666 -4.88203 0 4.882 6.877)" gradientUnits="userSpaceOnUse"><stop stop-color="#FBB"/><stop offset="1" stop-color="#FBB" stop-opacity="0"/></radialGradient></defs></svg>